<svg width="512" height="512" viewBox="0 0 512 512" fill="none" xmlns="http://www.w3.org/2000/svg">
<path d="M501.801 397.367H417.128V217.392C417.128 197.159 408.9 177.37 394.554 163.102L351.57 120.35L388.175 83.745C392.158 79.762 392.158 73.304 388.175 69.32L335.093 16.238C331.11 12.255 324.652 12.255 320.668 16.238L283.88 53.028L260.738 30.011C256.752 26.048 250.31 26.055 246.334 30.03L205.951 70.413C204.039 72.325 202.964 74.919 202.964 77.625C202.964 80.331 204.039 82.924 205.951 84.837L229.01 107.896L170.254 166.655C166.271 170.638 166.271 177.096 170.254 181.08L178.363 189.189L133.537 234.016C129.554 237.999 129.554 244.457 133.537 248.441L155.975 270.879C157.967 272.871 160.577 273.866 163.187 273.866C165.797 273.866 168.408 272.871 170.399 270.879L215.226 226.053L223.335 234.162C225.327 236.154 227.937 237.149 230.547 237.149C233.157 237.149 235.768 236.154 237.759 234.162L296.517 175.404L323.168 202.055C333.777 212.665 339.62 226.771 339.62 241.775V397.368H135.65V361.67H199.905C205.538 361.67 210.104 357.104 210.104 351.471V313.642C210.104 308.009 205.538 303.443 199.905 303.443H52.016C46.383 303.443 41.817 308.009 41.817 313.642V351.471C41.817 357.104 46.383 361.67 52.016 361.67H115.251V397.367H10.199C4.566 397.367 0 401.933 0 407.566V488.549C0 494.182 4.566 498.748 10.199 498.748H501.801C507.434 498.748 512 494.182 512 488.549V407.566C512 401.933 507.434 397.367 501.801 397.367ZM327.882 37.875L366.54 76.533L337.107 105.966L298.344 67.414L327.882 37.875ZM163.187 249.242L155.172 241.227L192.787 203.612L200.802 211.627L163.187 249.242ZM230.548 212.525L222.443 204.42C222.441 204.418 222.44 204.417 222.438 204.415L200 181.977C199.998 181.975 199.997 181.974 199.995 181.972L191.89 173.867L243.436 122.322L282.094 160.979L230.548 212.525ZM337.593 187.629L227.587 77.625L253.565 51.647L380.17 177.564C390.695 188.031 396.73 202.548 396.73 217.391V397.365H360.02V241.773C360.02 221.322 352.055 202.093 337.593 187.629ZM62.215 341.271V323.841H189.705V341.271H62.215ZM491.602 478.35H20.398V417.766H491.601V478.35H491.602Z" fill="#79B8E8"/>
<path d="M275.378 427.873H268.239C262.606 427.873 258.04 432.439 258.04 438.072C258.04 443.705 262.606 448.271 268.239 448.271H275.378C281.011 448.271 285.577 443.705 285.577 438.072C285.578 432.439 281.012 427.873 275.378 427.873Z" fill="#79B8E8"/>
<path d="M230.502 427.873H41.817C36.184 427.873 31.618 432.439 31.618 438.072C31.618 443.705 36.184 448.271 41.817 448.271H230.502C236.135 448.271 240.701 443.705 240.701 438.072C240.701 432.439 236.135 427.873 230.502 427.873Z" fill="#79B8E8"/>
</svg>
