<svg width="46" height="46" viewBox="0 0 492 368" fill="#ffc514" xmlns="http://www.w3.org/2000/svg">
<path d="M382.835 137.165L353.244 201.245L258.434 0L175.908 175.163L133.353 84.836L0 367.883H491.531L382.835 137.165ZM383.017 184.478L405.11 231.373C402.842 232.938 400.877 234.71 399.085 236.331C394.534 240.449 391.247 243.425 384.264 243.425C377.281 243.425 373.993 240.449 369.442 236.331C367.246 234.344 364.789 232.131 361.832 230.352L383.017 184.478ZM291.715 117.571C287.294 119.904 283.704 123.146 280.544 126.007C274.42 131.549 269.132 136.336 258.53 136.336C247.928 136.336 242.639 131.549 236.516 126.007C233.319 123.112 229.683 119.825 225.19 117.486L258.433 46.927L291.715 117.571ZM167.337 203.897C163.293 206.218 159.903 209.279 156.731 212.15C150.244 218.021 144.642 223.091 133.353 223.091C122.064 223.091 116.462 218.021 109.975 212.15C106.803 209.279 103.412 206.217 99.368 203.897L133.353 131.764L167.337 203.897ZM31.531 347.883L90.777 222.132C92.418 223.278 94.242 224.885 96.554 226.978C104.067 233.778 114.357 243.091 133.353 243.091C152.349 243.091 162.639 233.778 170.152 226.978C172.463 224.886 174.287 223.28 175.928 222.133L235.171 347.883H31.531ZM257.279 347.883L186.961 198.627L216.655 135.601C218.348 136.62 220.31 138.314 223.094 140.833C230.321 147.375 240.219 156.335 258.53 156.335C276.841 156.335 286.738 147.375 293.966 140.833C296.668 138.387 298.595 136.722 300.254 135.694L342.301 224.943L285.53 347.882H257.279V347.883ZM353.317 248.793C354.072 249.414 354.948 250.188 356.022 251.159C361.418 256.044 369.575 263.425 384.264 263.425C398.953 263.425 407.109 256.044 412.506 251.159C412.999 250.713 413.441 250.318 413.861 249.947L460 347.883H307.559L353.317 248.793Z" fill="#FFC514"/>
<path d="M374.643 99.307L382.641 110.03L390.682 99.329C390.721 99.277 394.653 94.083 400.853 89.052C406.019 84.862 413.93 79.865 422.29 79.865V59.865C405.261 59.865 391.032 70.442 382.67 78.49C374.309 70.442 360.08 59.865 343.051 59.865V79.865C351.411 79.865 359.322 84.861 364.488 89.052C370.688 94.082 374.62 99.277 374.643 99.307Z" fill="#FFC514"/>
</svg>
